<svg xmlns="http://www.w3.org/2000/svg" viewBox="0 0 1222.25 780.97">
  <defs>
    <style>
      .cls-1 {
        fill: #2f2933;
      }

      .cls-2 {
        fill: #01a2a6;
      }

      .cls-3 {
        fill: #fff;
        stroke: #fff;
        stroke-miterlimit: 10;
      }
    </style>
  </defs>
  <title>ResumeHub Logo FINAL</title>
  <g id="Layer_1" data-name="Layer 1">
    <g>
      <path class="cls-1" d="M137,448.62,92.7,360.12H52.87v88.5H21v-210h81.42c39.83,0,65.2,25.66,65.2,61.36,0,30.09-18.29,49.26-41.89,55.75l48.38,92.93ZM100.07,267.19H52.87V333h47.2c21.24,0,35.7-12.1,35.7-32.75S121.31,267.19,100.07,267.19Z" transform="translate(-19.91 -19.79)"/>
      <path class="cls-1" d="M218.66,382.54c0,25.66,13.57,41.89,38.06,41.89,16.81,0,25.66-4.72,36.28-15.34l19.18,18c-15.34,15.34-29.8,23.31-56.05,23.31-37.47,0-67.26-19.77-67.26-76.7,0-48.38,25.07-76.41,63.42-76.41,40.12,0,63.43,29.5,63.43,72v13.28Zm63.13-41.3c-4.72-11.21-15.34-18.88-29.5-18.88S227.22,330,222.5,341.24c-2.95,6.78-3.54,11.21-3.84,20.35h67.26C285.63,352.45,284.74,348,281.79,341.24Z" transform="translate(-19.91 -19.79)"/>
      <path class="cls-1" d="M389.76,450.39c-24.49,0-45.14-4.13-62.84-21.54l19.77-19.76c12.09,12.39,28.32,15.63,43.07,15.63,18.29,0,32.74-6.49,32.74-20.65,0-10-5.6-16.52-20.06-17.7l-23.89-2.06c-28-2.36-44.25-15.05-44.25-41.3,0-29.21,25.07-45.73,56.34-45.73,22.42,0,41.6,4.72,55.46,16.82l-18.88,19.17c-9.44-8-22.71-10.91-36.87-10.91-18,0-27.14,8-27.14,19.17,0,8.85,4.72,15.64,20.65,17.11l23.6,2.07c28,2.36,44.54,15.63,44.54,42.18C452,434.16,425.45,450.39,389.76,450.39Z" transform="translate(-19.91 -19.79)"/>
      <path class="cls-1" d="M564.69,448.62V433.57c-10.32,11.21-24.78,16.82-39.82,16.82-15.34,0-28-5-36.88-13.57-11.5-11.21-15-25.37-15-42.19V299.05H503v91.16c0,23.3,13.27,33.33,30.09,33.33s31-10.32,31-33.33V299.05h30.09V448.62Z" transform="translate(-19.91 -19.79)"/>
      <path class="cls-1" d="M810.13,448.62V357.46c0-23.3-13.28-33.33-30.09-33.33-16.23,0-31,10.32-31,31.86v92.63H719V357.46c0-23.3-13.27-33.33-30.09-33.33s-31,10.32-31,33.33v91.16H627.82V299.05h29.5V314.1c10-10.92,24.78-16.82,39.82-16.82,18.59,0,33.05,7.38,42.49,21.83,12.09-14.75,27.13-21.83,46.9-21.83,15.34,0,28.91,5,37.76,13.57,11.5,11.21,15.93,25.37,15.93,42.19v95.58Z" transform="translate(-19.91 -19.79)"/>
      <path class="cls-1" d="M894.5,382.54c0,25.66,13.57,41.89,38.06,41.89,16.81,0,25.66-4.72,36.28-15.34l19.18,18c-15.34,15.34-29.8,23.31-56.06,23.31-37.46,0-67.25-19.77-67.25-76.7,0-48.38,25.07-76.41,63.42-76.41,40.12,0,63.42,29.5,63.42,72v13.28Zm63.13-41.3c-4.72-11.21-15.34-18.88-29.5-18.88s-25.07,7.67-29.79,18.88c-3,6.78-3.54,11.21-3.84,20.35h67.26C961.46,352.45,960.58,348,957.63,341.24Z" transform="translate(-19.91 -19.79)"/>
    </g>
  </g>
  <g id="Layer_3" data-name="Layer 3">
    <path class="cls-2" d="M27,219C19.77,203.74,212.21,70.34,453,32c278.76-44.38,681.8,29.11,770,272,39.66,109.21,17.17,256.83-62,355-46.26,57.35-121.36,109.61-191,123-15.29,2.94-50.66,7.92-94,7a493.91,493.91,0,0,1-73-7c-.38-27.73-1.49-68.58-5-118-7.47-105.31-17.73-136.09,3-157,23.86-24.07,53.27.76,130-14,37.18-7.15,103.72-19.95,134-73,25.12-44,12.94-94.1,10-106-3.51-14.22-11.88-39.74-40-74-28.52-34.74-68.83-68.09-140-100C791.33,93.51,700.16,85,636.51,79.66A1051.58,1051.58,0,0,0,456,80h0C199.4,106.71,29.83,225,27,219Z" transform="translate(-19.91 -19.79)"/>
    <path d="M2681,91" transform="translate(-19.91 -19.79)"/>
    <path d="M-906-697" transform="translate(-19.91 -19.79)"/>
    <path d="M1493,540" transform="translate(-19.91 -19.79)"/>
    <path d="M658,124" transform="translate(-19.91 -19.79)"/>
    <path d="M-754-263" transform="translate(-19.91 -19.79)"/>
  </g>
  <g id="Layer_2" data-name="Layer 2">
    <g>
      <path class="cls-1" d="M216.42,798.06V658.11h-143V798.06H19.91V477.66H73.37v136.8h143V477.66h53.46v320.4Z" transform="translate(-19.91 -19.79)"/>
      <path class="cls-1" d="M530.74,800.76c-71.77,0-126.22-44.55-126.22-110.7V477.66H458V687.81c0,42.75,28.71,69.3,72.76,69.3S604,730.56,604,687.81V477.66h53.46v212.4C657.46,756.21,602.52,800.76,530.74,800.76Z" transform="translate(-19.91 -19.79)"/>
    </g>
  </g>
  <g id="Layer_4" data-name="Layer 4">
    <path class="cls-3" d="M898.47,799.06H755.91V478.66H893c65.34,0,106.43,33.75,106.43,87.75,0,34.65-23.76,59.4-47.52,68,27.22,9.9,53,33.75,53,74.25C1004.89,767.56,960.84,799.06,898.47,799.06Zm-9.9-276.75h-79.2v91.8h79.2c34.15,0,57.42-16.2,57.42-45.9S922.72,522.31,888.57,522.31Zm4.95,135.45H809.37v97.65h84.15c37.12,0,57.91-20.7,57.91-49S930.64,657.76,893.52,657.76Z" transform="translate(-19.91 -19.79)"/>
  </g>
</svg>
