<svg xmlns="http://www.w3.org/2000/svg" width="20" height="20" viewBox="0 0 20 20">
  <path id="Path_1991" data-name="Path 1991" d="M974-65.625A2.625,2.625,0,0,1,976.625-63,2.625,2.625,0,0,1,974-60.375,2.625,2.625,0,0,1,971.375-63,2.625,2.625,0,0,1,974-65.625Zm0,11.25c3.713,0,7.625,1.825,7.625,2.625v1.375h-15.25V-51.75C966.375-52.55,970.288-54.375,974-54.375ZM974-68a5,5,0,0,0-5,5,5,5,0,0,0,5,5,5,5,0,0,0,5-5A5,5,0,0,0,974-68Zm0,11.25c-3.337,0-10,1.675-10,5V-48h20v-3.75C984-55.075,977.338-56.75,974-56.75Z" transform="translate(-964 68)" fill="#5e5266"/>
</svg>
